<svg xmlns="http://www.w3.org/2000/svg" viewBox="0 0 64 64"><defs><linearGradient id="a" x1="0%" y1="0%" x2="100%" y2="100%"><stop offset="0%" stop-color="#3B82F6"/><stop offset="100%" stop-color="#8B5CF6"/></linearGradient></defs><path d="M46 22C46 14.268 39.732 8 32 8C25.65 8 20.29 12.18 18.66 17.9C18.4 17.85 18.15 17.84 17.9 17.84C10.22 17.84 4 24.06 4 31.74C4 39.42 10.22 45.64 17.9 45.64H47.4C54.36 45.64 60 39.99 60 33.04C60 26.6 55.19 21.28 48.97 20.5C48.24 21.37 47.19 22 46 22Z" fill="none" stroke="url(#a)" stroke-width="3.5" stroke-linejoin="round" stroke-linecap="round"/><g transform="translate(1 1)"><path d="M26 26L20 32L26 38" fill="none" stroke="url(#a)" stroke-width="3.5" stroke-linecap="round" stroke-linejoin="round"/><path d="M38 26L44 32L38 38" fill="none" stroke="url(#a)" stroke-width="3.5" stroke-linecap="round" stroke-linejoin="round"/><path d="M34 24L30 40" fill="none" stroke="url(#a)" stroke-width="2.5" stroke-linecap="round"/></g></svg>